#!OML:ASF E:\VariousWalksJay\Project 1\Capture day 1\Session 1\Actor2.ASF
:FULLY-SPECIFIED
:DEGREES
981
root 10.3456 9.87455 47.6669 199.079 -48.1557 -179.948
lowerback 51.9904 2.56877 -0.841779
upperback 16.2403 -2.84603 -4.55821
thorax -2.90855 -2.7985 -3.32155
lowerneck 2.80703 -3.50245 -11.1287
upperneck -32.0753 -1.82812 25.2303
head -9.917 -3.78713 12.1767
rclavicle 1.08139e-013 4.76089e-014
rhumerus 49.0674 25.5955 -42.2448
rradius 34.3112
rwrist -6.17466
rhand -13.9407 -9.22086
rfingers 7.12502
rthumb 12.1863 -38.8459
lclavicle 1.08139e-013 4.76089e-014
lhumerus 52.5843 -19.4752 61.5818
lradius 26.693
lwrist -1.05795
lhand -38.8417 -35.2955
lfingers 7.12502
lthumb -11.851 -5.65088
rfemur -92.702 -43.5608 13.8928
rtibia 111.014
rfoot -23.7356 -16.1988
rtoes -27.8812
lfemur -104.606 36.9411 -19.6953
ltibia 91.3506
lfoot -12.5015 -12.6498
ltoes -29.8967
982
root 10.3435 9.8904 47.6554 199.358 -47.8959 -180.318
lowerback 52.1658 2.66222 -0.96943
upperback 16.1735 -2.81954 -4.60103
thorax -2.99816 -2.78928 -3.31647
lowerneck 2.88263 -3.52602 -11.0361
upperneck -32.1212 -1.85135 25.2126
head -9.94802 -3.81201 12.1625
rclavicle 8.74653e-015 4.99943e-014
rhumerus 48.8549 25.5729 -42.5656
rradius 34.2242
rwrist -5.45092
rhand -14.2055 -9.07218
rfingers 7.12502
rthumb 11.9309 -38.7122
lclavicle 8.74653e-015 4.99943e-014
lhumerus 52.6389 -19.6164 61.4503
lradius 26.5625
lwrist -1.00874
lhand -38.8733 -35.1504
lfingers 7.12502
lthumb -11.8814 -5.50747
rfemur -92.6918 -43.4179 13.6387
rtibia 110.932
rfoot -23.8849 -16.0563
rtoes -27.1761
lfemur -104.289 37.0232 -19.8108
ltibia 91.2098
lfoot -12.3493 -12.6209
ltoes -29.5325
983
root 10.3358 9.9068 47.6415 199.735 -47.7765 -180.722
lowerback 52.1588 2.59928 -0.904507
upperback 16.1965 -2.87212 -4.67795
thorax -2.98294 -2.80456 -3.40923
lowerneck 2.85816 -3.57808 -10.9962
upperneck -32.1999 -1.91002 25.2469
head -9.95836 -3.85632 12.181
rclavicle 5.00937e-014 1.29806e-013
rhumerus 48.7389 25.5963 -42.385
rradius 34.3467
rwrist -5.18054
rhand -14.5486 -9.03564
rfingers 7.12502
rthumb 11.6001 -38.6946
lclavicle 5.00937e-014 1.29806e-013
lhumerus 52.9789 -19.9032 60.9056
lradius 26.2643
lwrist -0.597588
lhand -38.9865 -34.9533
lfingers 7.12502
lthumb -11.9907 -5.31673
rfemur -92.7021 -43.4796 13.4165
rtibia 110.848
rfoot -24.0757 -15.8573
rtoes -26.4665
lfemur -104.09 36.9587 -19.9937
ltibia 91.0976
lfoot -12.3095 -12.5182
ltoes -29.5636
984
root 10.3303 9.92417 47.6298 200.036 -47.6104 -180.954
lowerback 52.1041 2.50036 -0.901894
upperback 16.1754 -2.98129 -4.73008
thorax -3.01152 -2.84908 -3.42227
lowerneck 2.84433 -3.55821 -11.135
upperneck -32.2459 -1.88633 25.3145
head -9.97213 -3.84259 12.2468
rclavicle 3.18055e-014 -9.24349e-015
rhumerus 48.8665 25.802 -42.274
rradius 34.3423
rwrist -4.84733
rhand -14.8319 -8.81536
rfingers 7.12502
rthumb 11.3269 -38.4895
lclavicle 3.18055e-014 -9.24349e-015
lhumerus 52.9206 -19.7613 60.8071
lradius 26.0498
lwrist -0.519692
lhand -38.9557 -34.8829
lfingers 7.12502
lthumb -11.9609 -5.24464
rfemur -92.8262 -43.3756 13.3731
rtibia 110.747
rfoot -24.1937 -15.7676
rtoes -25.8602
lfemur -103.948 36.9822 -20.0839
ltibia 90.9817
lfoot -12.1285 -12.5102
ltoes -29.1694
985
root 10.3252 9.94145 47.6143 200.445 -47.3066 -181.471
lowerback 52.1327 2.65692 -0.999648
upperback 16.1967 -2.86746 -4.76295
thorax -2.98309 -2.80097 -3.45887
lowerneck 2.94599 -3.67488 -10.9061
upperneck -32.4743 -2.03025 25.2463
head -10.0548 -3.95058 12.2144
rclavicle 2.38542e-015 -7.73272e-014
rhumerus 48.4937 25.5206 -42.7257
rradius 34.1658
rwrist -4.251
rhand -15.1419 -8.53778
rfingers 7.12502
rthumb 11.0279 -38.2281
lclavicle 2.38542e-015 -7.73272e-014
lhumerus 53.9959 -20.7106 59.1537
lradius 25.1624
lwrist 1.16563
lhand -39.1197 -35.1435
lfingers 7.12502
lthumb -12.119 -5.5145
rfemur -92.8674 -43.3175 13.0596
rtibia 110.671
rfoot -24.4681 -15.5111
rtoes -24.9675
lfemur -103.654 37.0673 -20.3847
ltibia 90.8542
lfoot -12.2011 -12.3347
ltoes -29.4409
986
root 10.3147 9.95913 47.5985 200.746 -47.2036 -181.675
lowerback 51.9784 2.52784 -0.895047
upperback 16.1944 -2.94427 -4.78644
thorax -2.97999 -2.82511 -3.50139
lowerneck 2.97986 -3.69293 -10.8476
upperneck -32.5841 -2.06173 25.1956
head -10.1002 -3.97835 12.2015
rclavicle 8.74653e-015 1.70955e-014
rhumerus 48.4469 25.6071 -42.9155
rradius 34.1007
rwrist -3.99341
rhand -15.4702 -8.38833
rfingers 7.12502
rthumb 10.7112 -38.0953
lclavicle 8.74653e-015 1.70955e-014
lhumerus 53.6248 -20.3874 59.7491
lradius 25.1599
lwrist 0.621345
lhand -38.8736 -34.9867
lfingers 7.12502
lthumb -11.8818 -5.34379
rfemur -92.9619 -43.3255 13.0583
rtibia 110.577
rfoot -24.6424 -15.3922
rtoes -24.5127
lfemur -103.565 37.0614 -20.5252
ltibia 90.7398
lfoot -12.1747 -12.1378
ltoes -29.5629
987
root 10.311 9.9803 47.5811 200.976 -46.9203 -181.794
lowerback 51.913 2.54901 -0.886331
upperback 16.1525 -2.90655 -4.81679
thorax -3.02041 -2.80148 -3.55067
lowerneck 2.98846 -3.72367 -10.7932
upperneck -32.7108 -2.09699 25.2059
head -10.1436 -4.01688 12.2179
rclavicle -5.56597e-014 -6.16232e-014
rhumerus 48.456 25.9077 -42.8882
rradius 34.1812
rwrist -4.89038
rhand -16.6413 -9.06818
rfingers 7.12502
rthumb 9.58144 -38.8303
lclavicle -5.56597e-014 -6.16232e-014
lhumerus 53.7589 -20.4889 59.475
lradius 24.7475
lwrist 0.905043
lhand -38.8268 -34.9184
lfingers 7.12502
lthumb -11.8367 -5.27294
rfemur -93.1237 -43.0404 13.1224
rtibia 110.462
rfoot -24.823 -15.4061
rtoes -23.901
lfemur -103.371 37.2579 -20.5683
ltibia 90.5675
lfoot -12.0201 -11.9906
ltoes -29.3317
988
root 10.3026 10.0009 47.5645 201.396 -46.668 -182.138
lowerback 51.8042 2.44222 -0.817912
upperback 16.1242 -2.99079 -4.93546
thorax -3.05773 -2.82391 -3.67479
lowerneck 2.93908 -3.76155 -10.7551
upperneck -32.8055 -2.13813 25.2601
head -10.159 -4.05964 12.248
rclavicle 8.5875e-014 1.19569e-013
rhumerus 48.385 26.0186 -43.3323
rradius 34.0635
rwrist -5.25752
rhand -17.4292 -9.35939
rfingers 7.12502
rthumb 8.82119 -39.155
lclavicle 8.5875e-014 1.19569e-013
lhumerus 54.0167 -20.7744 58.7165
lradius 24.278
lwrist 1.60689
lhand -38.7493 -34.9036
lfingers 7.12502
lthumb -11.7619 -5.25389
rfemur -93.3499 -42.9716 13.0793
rtibia 110.346
rfoot -24.9818 -15.3434
rtoes -23.2143
lfemur -103.221 37.3144 -20.8254
ltibia 90.4216
lfoot -12.0191 -11.6508
ltoes -29.5567
989
root 10.2942 10.0267 47.5439 201.772 -46.3466 -182.552
lowerback 51.7839 2.40548 -0.899476
upperback 16.0877 -3.07982 -5.01765
thorax -3.10559 -2.86292 -3.68859
lowerneck 2.8686 -3.76549 -10.7782
upperneck -32.8764 -2.13873 25.3253
head -10.1684 -4.07574 12.2904
rclavicle -8.34896e-014 -6.55989e-015
rhumerus 48.3994 25.9838 -43.7192
rradius 33.9243
rwrist -5.03202
rhand -17.0876 -9.00555
rfingers 7.12502
rthumb 9.15085 -38.787
lclavicle -8.34896e-014 -6.55989e-015
lhumerus 54.0379 -20.7334 58.5282
lradius 23.7182
lwrist 1.66869
lhand -38.4774 -35.0643
lfingers 7.12502
lthumb -11.4997 -5.39971
rfemur -93.4296 -42.872 12.9025
rtibia 110.218
rfoot -25.1766 -15.1684
rtoes -22.3326
lfemur -102.87 37.4478 -21.0418
ltibia 90.2698
lfoot -12.0771 -11.4271
ltoes -29.7839
990
root 10.2778 10.055 47.528 202.145 -46.1945 -183.091
lowerback 51.9281 2.00492 -0.799439
upperback 15.9922 -3.51583 -5.21505
thorax -3.27609 -3.04499 -3.76847
lowerneck 2.72 -3.66682 -11.1544
upperneck -32.788 -2.00097 25.6046
head -10.115 -3.99814 12.4696
rclavicle 4.45278e-014 7.41467e-014
rhumerus 48.6814 26.0669 -44.3951
rradius 33.4958
rwrist -4.01262
rhand -16.2605 -8.51988
rfingers 7.12502
rthumb 9.94884 -38.2648
lclavicle 4.45278e-014 7.41467e-014
lhumerus 53.668 -20.2734 58.5525
lradius 23.1128
lwrist 1.18532
lhand -38.0536 -34.9775
lfingers 7.12502
lthumb -11.091 -5.29052
rfemur -93.2851 -43.1104 12.5657
rtibia 110.071
rfoot -25.4731 -14.855
rtoes -21.5239
lfemur -102.419 37.3833 -21.2866
ltibia 90.1522
lfoot -12.2285 -11.1148
ltoes -30.1741
991
root 10.2705 10.0785 47.492 202.739 -45.4283 -183.881
lowerback 51.5833 2.50196 -1.3013
upperback 16.1496 -3.21099 -5.25169
thorax -3.02774 -2.93835 -3.70633
lowerneck 2.84943 -3.78818 -10.7436
upperneck -33.1621 -2.13691 25.4904
head -10.2711 -4.13554 12.4093
rclavicle 2.54444e-014 8.05078e-014
rhumerus 48.2703 25.6077 -45.3638
rradius 33.1195
rwrist -3.97939
rhand -16.5961 -8.67792
rfingers 7.12502
rthumb 9.62507 -38.438
lclavicle 2.54444e-014 8.05078e-014
lhumerus 54.1872 -20.6762 58.108
lradius 22.3913
lwrist 0.8237
lhand -37.4408 -34.6891
lfingers 7.12502
lthumb -10.4998 -4.97133
rfemur -93.5147 -42.7856 12.0777
rtibia 109.98
rfoot -25.7545 -14.6643
rtoes -20.4181
lfemur -101.933 37.855 -21.897
ltibia 90.0191
lfoot -12.4622 -10.891
ltoes -30.5119
992
root 10.2604 10.109 47.4647 203.009 -44.9679 -184.328
lowerback 51.6573 2.37881 -1.33513
upperback 16.0592 -3.39738 -5.43191
thorax -3.16258 -3.0154 -3.80567
lowerneck 2.7528 -3.76478 -10.8675
upperneck -33.1377 -2.10554 25.6196
head -10.2404 -4.12444 12.4832
rclavicle 9.85972e-014 -1.07344e-014
rhumerus 48.4975 25.8049 -45.9234
rradius 32.6928
rwrist -3.91699
rhand -16.335 -8.60946
rfingers 7.12502
rthumb 9.87693 -38.3578
lclavicle 9.85972e-014 -1.07344e-014
lhumerus 54.2572 -20.6003 57.5204
lradius 21.4583
lwrist 0.339157
lhand -36.8266 -34.1005
lfingers 7.12502
lthumb -9.90737 -4.35367
rfemur -93.4828 -42.6347 11.8339
rtibia 109.853
rfoot -26.066 -14.6102
rtoes -19.4691
lfemur -101.429 38.1664 -22.1962
ltibia 89.8778
lfoot -12.6393 -10.6771
ltoes -30.6452
993
root 10.2436 10.1345 47.4335 203.554 -44.3677 -185.227
lowerback 51.4052 2.48921 -1.57294
upperback 16.1647 -3.40991 -5.53944
thorax -3.01785 -3.03713 -3.81186
lowerneck 2.79432 -3.81231 -10.7044
upperneck -33.3216 -2.17766 25.5161
head -10.3123 -4.18382 12.4391
rclavicle -1.59028e-015 -8.15017e-014
rhumerus 48.7343 25.65 -46.0034
rradius 32.1864
rwrist -4.0456
rhand -15.9697 -8.63224
rfingers 7.12502
rthumb 10.2294 -38.3635
lclavicle -1.59028e-015 -8.15017e-014
lhumerus 54.7591 -20.9576 56.5579
lradius 20.5882
lwrist 0.196332
lhand -36.1474 -33.0418
lfingers 7.12502
lthumb -9.25202 -3.26481
rfemur -93.5004 -42.7572 11.2519
rtibia 109.8
rfoot -26.3303 -14.4194
rtoes -18.4548
lfemur -100.82 38.463 -22.8071
ltibia 89.7942
lfoot -12.9112 -10.4336
ltoes -31.1842
994
root 10.2328 10.1652 47.4013 203.814 -43.6624 -185.857
lowerback 51.2828 2.58848 -1.72878
upperback 16.2206 -3.41454 -5.6819
thorax -2.94831 -3.05136 -3.89355
lowerneck 2.73252 -3.85664 -10.626
upperneck -33.3892 -2.25515 25.4488
head -10.3118 -4.22884 12.4002
rclavicle -6.2816e-014 -9.75039e-014
rhumerus 49.0181 25.6928 -46.4951
rradius 31.4348
rwrist -4.04011
rhand -16.0567 -8.62055
rfingers 7.12502
rthumb 10.1454 -38.3559
lclavicle -6.2816e-014 -9.75039e-014
lhumerus 55.1587 -21.2554 55.3901
lradius 19.9113
lwrist 0.12235
lhand -35.6945 -31.076
lfingers 7.12502
lthumb -8.81501 -1.28011
rfemur -93.4566 -42.5712 10.8196
rtibia 109.731
rfoot -26.5792 -14.5836
rtoes -17.8718
lfemur -100.091 38.9423 -23.2319
ltibia 89.6594
lfoot -13.0835 -10.1168
ltoes -30.7315
